<svg width="200" height="178" viewBox="0 0 200 178" fill="none" xmlns="http://www.w3.org/2000/svg">
<path fill-rule="evenodd" clip-rule="evenodd" d="M16.6352 67.8513C11.5485 74.3065 6.95892 80.5651 3.03889 86.2533L19.9125 100.036L18.4832 101.786L0 86.6885L0.586059 85.8313C4.66107 79.8753 9.4876 73.273 14.8612 66.4537L15.3283 65.8609L16.5106 66.7923L17.1013 67.2596L16.6352 67.8513ZM130.609 123.87C135.642 144.736 124.006 165.147 112.234 177.044L111.512 177.774L37.7208 117.5L39.1502 115.75L111.34 174.716C122.73 162.854 133.256 143.414 128.279 123.87H130.609ZM106.993 0.226324C114.573 1.14126 121.475 4.86823 127.293 12.1051C135.988 22.921 139.557 32.1902 139.919 40.3498L137.616 39.664C137.089 32.2521 133.704 23.6858 125.531 13.5208C120.054 6.70772 113.672 3.30901 106.723 2.47007C99.7355 1.62662 92.0634 3.35885 84.0337 7.02752C67.9576 14.3726 50.7841 29.3203 35.4639 45.8045L34.9497 46.357L34.3972 45.8429L33.8483 45.3336L33.2957 44.8195L33.8099 44.267C49.1887 27.7198 66.6069 12.5061 83.0954 4.97267C91.3479 1.20225 99.4515 -0.68395 106.993 0.226324Z" fill="white"/>
<path d="M19.2466 69.1069V52.0147L17.0875 48.2724H34.4316V55.6131H34.0717L30.0416 49.5678H23.9244V59.6432H33.46V61.2984H23.9244V69.1069L27.7746 72.9211H17.0875V72.7052L19.2466 69.1069Z" fill="white"/>
<path d="M51.3267 63.3135C51.3267 64.465 51.1227 65.6404 50.7149 66.8399C50.3311 68.0393 49.7314 69.1188 48.9158 70.0784C48.1241 71.038 47.1046 71.8296 45.8572 72.4533C44.6337 73.053 43.1824 73.3529 41.5032 73.3529C40.2318 73.3529 39.1043 73.113 38.1207 72.6332C37.1612 72.1535 36.3455 71.5297 35.6738 70.7621C35.0261 69.9705 34.5344 69.0709 34.1985 68.0633C33.8627 67.0318 33.6948 65.9763 33.6948 64.8968C33.6948 63.7453 33.8867 62.5699 34.2705 61.3704C34.6783 60.171 35.29 59.0915 36.1056 58.1319C36.9213 57.1723 37.9408 56.3927 39.1642 55.793C40.3877 55.1693 41.839 54.8574 43.5182 54.8574C44.7897 54.8574 45.9051 55.0973 46.8647 55.5771C47.8483 56.0569 48.6639 56.6926 49.3116 57.4842C49.9833 58.2518 50.487 59.1514 50.8229 60.183C51.1587 61.1905 51.3267 62.234 51.3267 63.3135ZM41.5751 56.2248C40.8315 56.2248 40.2318 56.4047 39.776 56.7645C39.3442 57.1244 39.0083 57.5802 38.7684 58.1319C38.5525 58.6597 38.4086 59.2354 38.3366 59.8591C38.2886 60.4828 38.2647 61.0705 38.2647 61.6223C38.2647 63.0137 38.3846 64.345 38.6245 65.6165C38.8884 66.8639 39.2362 67.9674 39.668 68.9269C40.1238 69.8625 40.6755 70.6062 41.3233 71.1579C41.971 71.7097 42.6906 71.9855 43.4823 71.9855C44.154 71.9855 44.7057 71.7936 45.1375 71.4098C45.5693 71.026 45.9051 70.5582 46.145 70.0064C46.4089 69.4307 46.5888 68.831 46.6848 68.2073C46.7807 67.5836 46.8287 67.0438 46.8287 66.588C46.8287 65.1727 46.6968 63.8413 46.4329 62.5938C46.193 61.3464 45.8452 60.2549 45.3894 59.3194C44.9336 58.3598 44.3818 57.6041 43.7341 57.0524C43.0864 56.5006 42.3668 56.2248 41.5751 56.2248Z" fill="white"/>
<path d="M68.9096 61.6583C68.5258 60.7227 68.106 59.9311 67.6502 59.2834C67.1944 58.6357 66.7266 58.1199 66.2469 57.7361C65.7911 57.3283 65.3233 57.0404 64.8435 56.8725C64.3877 56.7046 63.9559 56.6206 63.5481 56.6206C62.9244 56.6206 62.4446 56.7405 62.1088 56.9804C61.7729 57.1963 61.521 57.5322 61.3531 57.988C61.2092 58.4438 61.1252 59.0195 61.1012 59.7152C61.0772 60.3869 61.0652 61.1785 61.0652 62.0901V69.8265L64.4117 72.9211H54.0844L56.7472 69.8265V58.0599L54.3004 55.2892H69.1975V61.6583H68.9096Z" fill="white"/>
<path d="M77.3284 55.2892H84.2372L83.4455 57.2323H77.3284V66.0842C77.3284 66.9478 77.3763 67.6675 77.4723 68.2433C77.5922 68.795 77.7602 69.2388 77.9761 69.5746C78.216 69.9105 78.5158 70.1504 78.8757 70.2943C79.2595 70.4143 79.7153 70.4742 80.243 70.4742C80.7948 70.4742 81.4185 70.3183 82.1142 70.0064C82.8098 69.6946 83.3616 69.1548 83.7694 68.3872L84.2012 68.9629C83.3376 70.4262 82.39 71.5297 81.3585 72.2734C80.327 72.9931 79.0796 73.3529 77.6162 73.3529C76.9925 73.3529 76.4048 73.2569 75.853 73.065C75.3013 72.8731 74.8095 72.5613 74.3777 72.1295C73.9699 71.6977 73.6341 71.1339 73.3702 70.4382C73.1303 69.7186 73.0103 68.843 73.0103 67.8114V57.5562L70.6354 55.2892L77.3284 50.1796V55.2892Z" fill="white"/>
<path d="M102.514 62.7738H90.9633C91.0592 63.9252 91.2751 64.9208 91.611 65.7604C91.9708 66.6 92.4026 67.2837 92.9064 67.8114C93.4102 68.3392 93.9859 68.735 94.6336 68.9989C95.2813 69.2388 95.953 69.3587 96.6487 69.3587C97.2724 69.3587 97.8601 69.2868 98.4119 69.1428C98.9636 68.9989 99.4674 68.807 99.9232 68.5671C100.379 68.3032 100.763 68.0154 101.075 67.7035C101.41 67.3677 101.65 67.0078 101.794 66.624L102.334 66.8399C102.022 67.6555 101.614 68.4592 101.111 69.2508C100.631 70.0424 100.055 70.7501 99.3834 71.3738C98.7117 71.9735 97.9441 72.4653 97.0805 72.8491C96.2409 73.233 95.2813 73.4249 94.2018 73.4249C93.0263 73.4249 91.9828 73.185 91.0712 72.7052C90.1596 72.2254 89.38 71.5897 88.7323 70.7981C88.1086 69.9825 87.6288 69.0709 87.293 68.0633C86.9811 67.0318 86.8252 65.9763 86.8252 64.8968C86.8252 63.7453 87.0051 62.5819 87.3649 61.4064C87.7248 60.2069 88.2645 59.1274 88.9842 58.1679C89.7278 57.2083 90.6394 56.4287 91.7189 55.829C92.8224 55.2292 94.1058 54.9294 95.5692 54.9294C97.7282 54.9294 99.4194 55.6131 100.643 56.9804C101.866 58.3238 102.49 60.2189 102.514 62.6658L102.55 62.7378H102.514V62.7738ZM97.8721 61.3704C97.8721 60.4108 97.7761 59.5952 97.5842 58.9235C97.4163 58.2279 97.1884 57.6641 96.9006 57.2323C96.6127 56.8005 96.2768 56.4887 95.893 56.2967C95.5332 56.1048 95.1494 56.0089 94.7415 56.0089C94.0698 56.0089 93.4821 56.1888 92.9784 56.5486C92.4986 56.9085 92.1028 57.3642 91.7909 57.916C91.479 58.4677 91.2511 59.0555 91.1072 59.6792C90.9633 60.3029 90.8913 60.8906 90.8913 61.4424V61.6943H97.8721V61.3704Z" fill="white"/>
<path d="M111.876 57.6281C112.524 56.8605 113.268 56.2248 114.107 55.721C114.971 55.1932 116.062 54.9294 117.382 54.9294C118.557 54.9294 119.589 55.1693 120.476 55.649C121.364 56.1288 122.108 56.7645 122.707 57.5562C123.331 58.3238 123.799 59.2234 124.111 60.2549C124.423 61.2625 124.579 62.306 124.579 63.3855C124.579 64.393 124.411 65.4725 124.075 66.624C123.739 67.7755 123.199 68.843 122.456 69.8265C121.736 70.8101 120.776 71.6257 119.577 72.2734C118.401 72.9211 116.95 73.245 115.223 73.245C114.839 73.245 114.347 73.209 113.748 73.137C113.172 73.065 112.548 72.9571 111.876 72.8132V77.563L115.223 80.6575H104.896L107.558 77.563V59.3553L105.112 56.5846L111.876 54.5335V57.6281ZM111.876 69.2148C112.404 69.8145 113.076 70.3783 113.891 70.906C114.707 71.4098 115.619 71.6617 116.626 71.6617C117.418 71.6617 118.054 71.5177 118.533 71.2299C119.013 70.942 119.385 70.5702 119.649 70.1144C119.937 69.6346 120.117 69.0949 120.189 68.4951C120.285 67.8954 120.333 67.2837 120.333 66.66C120.333 65.2446 120.189 63.9852 119.901 62.8817C119.637 61.7542 119.253 60.8067 118.749 60.039C118.269 59.2474 117.694 58.6477 117.022 58.2398C116.35 57.808 115.631 57.5921 114.863 57.5921C113.927 57.5921 112.932 57.928 111.876 58.5997V69.2148Z" fill="white"/>
<path d="M132.046 46.6172L135.104 49.9277L132.046 53.2741L128.951 49.9277L132.046 46.6172ZM134.313 54.9294V69.8265L136.975 72.9211H127.332L129.995 69.8265V60.111L127.548 57.3403L134.313 54.9294Z" fill="white"/>
<path d="M149.906 69.8985C149.571 70.2343 149.163 70.6062 148.683 71.014C148.203 71.3978 147.687 71.7576 147.136 72.0935C146.608 72.4293 146.044 72.7052 145.444 72.9211C144.845 73.161 144.245 73.2809 143.645 73.2809C142.398 73.2809 141.366 72.9571 140.551 72.3094C139.735 71.6617 139.327 70.6062 139.327 69.1428C139.327 68.2313 139.579 67.4156 140.083 66.696C140.611 65.9763 141.342 65.3166 142.278 64.7169C143.214 64.1171 144.329 63.5534 145.624 63.0257C146.92 62.4979 148.347 61.9581 149.906 61.4064C149.906 60.6867 149.882 60.015 149.834 59.3913C149.81 58.7676 149.703 58.2279 149.511 57.7721C149.319 57.3163 149.019 56.9564 148.611 56.6926C148.203 56.4287 147.627 56.2967 146.884 56.2967C146.164 56.2967 145.504 56.4167 144.905 56.6566C144.329 56.8965 143.777 57.2323 143.25 57.6641C142.746 58.0719 142.266 58.5637 141.81 59.1394C141.354 59.7152 140.899 60.3509 140.443 61.0466H140.191V55.2892H155.016L154.224 58.3838V70.5822H154.26L156.923 72.9211H149.906V69.8985ZM149.906 62.4139C148.491 62.9897 147.388 63.5174 146.596 63.9972C145.828 64.477 145.253 64.9448 144.869 65.4006C144.485 65.8324 144.257 66.2642 144.185 66.696C144.113 67.1038 144.077 67.5236 144.077 67.9554C144.077 68.819 144.329 69.4547 144.833 69.8625C145.361 70.2463 146.008 70.4382 146.776 70.4382C147.328 70.4382 147.867 70.3063 148.395 70.0424C148.947 69.7785 149.451 69.4067 149.906 68.9269V62.4139Z" fill="white"/>
<path d="M170.387 72.9211L172.978 69.8265V61.8382C172.978 61.1425 172.942 60.5188 172.87 59.9671C172.798 59.4153 172.654 58.9475 172.439 58.5637C172.223 58.1559 171.899 57.844 171.467 57.6281C171.059 57.4122 170.507 57.3043 169.812 57.3043C169.14 57.3043 168.468 57.4722 167.797 57.808C167.149 58.1199 166.537 58.6597 165.962 59.4273V69.8265L168.552 72.9211H158.909L161.644 69.8265V60.111L159.197 57.3403L165.962 54.9294V58.2039C166.681 57.0764 167.581 56.2368 168.66 55.685C169.74 55.1333 170.819 54.8574 171.899 54.8574C172.81 54.8574 173.602 55.0013 174.274 55.2892C174.969 55.5771 175.533 55.9729 175.965 56.4767C176.421 56.9804 176.757 57.5921 176.972 58.3118C177.188 59.0075 177.296 59.7751 177.296 60.6148V69.8265L180.031 72.9211H170.387Z" fill="white"/>
<path d="M200 63.3135C200 64.465 199.796 65.6404 199.388 66.8399C199.005 68.0393 198.405 69.1188 197.589 70.0784C196.798 71.038 195.778 71.8296 194.531 72.4533C193.307 73.053 191.856 73.3529 190.177 73.3529C188.905 73.3529 187.778 73.113 186.794 72.6332C185.835 72.1535 185.019 71.5297 184.347 70.7621C183.7 69.9705 183.208 69.0709 182.872 68.0633C182.536 67.0318 182.368 65.9763 182.368 64.8968C182.368 63.7453 182.56 62.5699 182.944 61.3704C183.352 60.171 183.964 59.0915 184.779 58.1319C185.595 57.1723 186.614 56.3927 187.838 55.793C189.061 55.1693 190.513 54.8574 192.192 54.8574C193.463 54.8574 194.579 55.0973 195.538 55.5771C196.522 56.0569 197.337 56.6926 197.985 57.4842C198.657 58.2518 199.161 59.1514 199.496 60.183C199.832 61.1905 200 62.234 200 63.3135ZM190.249 56.2248C189.505 56.2248 188.905 56.4047 188.45 56.7645C188.018 57.1244 187.682 57.5802 187.442 58.1319C187.226 58.6597 187.082 59.2354 187.01 59.8591C186.962 60.4828 186.938 61.0705 186.938 61.6223C186.938 63.0137 187.058 64.345 187.298 65.6165C187.562 66.8639 187.91 67.9674 188.342 68.9269C188.797 69.8625 189.349 70.6062 189.997 71.1579C190.645 71.7097 191.364 71.9855 192.156 71.9855C192.827 71.9855 193.379 71.7936 193.811 71.4098C194.243 71.026 194.579 70.5582 194.819 70.0064C195.082 69.4307 195.262 68.831 195.358 68.2073C195.454 67.5836 195.502 67.0438 195.502 66.588C195.502 65.1727 195.37 63.8413 195.106 62.5938C194.867 61.3464 194.519 60.2549 194.063 59.3194C193.607 58.3598 193.055 57.6041 192.408 57.0524C191.76 56.5006 191.04 56.2248 190.249 56.2248Z" fill="white"/>
<path d="M33.8558 110.92L31.6608 105.702H22.3051L20.362 110.596L23.7805 113.403H15.8281L18.383 110.56L27.5227 88.394H29.214L38.9295 110.992L41.6283 113.403H30.5454L33.8558 110.92ZM22.9529 104.083H31.0131L26.911 94.2233L22.9529 104.083Z" fill="white"/>
<path d="M56.9775 101.528C56.6656 100.88 56.3178 100.293 55.9339 99.7648C55.5741 99.213 55.1663 98.7332 54.7105 98.3254C54.2547 97.9176 53.7509 97.6058 53.1992 97.3899C52.6475 97.15 52.0237 97.03 51.3281 97.03C50.6324 97.03 50.0447 97.174 49.5649 97.4618C49.0851 97.7497 48.6893 98.1335 48.3774 98.6133C48.0896 99.0931 47.8736 99.6328 47.7297 100.233C47.6098 100.808 47.5498 101.408 47.5498 102.032C47.5498 103.423 47.6937 104.599 47.9816 105.558C48.2695 106.518 48.6533 107.297 49.1331 107.897C49.6368 108.497 50.2126 108.929 50.8603 109.192C51.508 109.432 52.1917 109.552 52.9113 109.552C53.535 109.552 54.1108 109.444 54.6385 109.228C55.1903 109.013 55.6701 108.749 56.0779 108.437C56.4857 108.101 56.8335 107.741 57.1214 107.357C57.4093 106.973 57.6012 106.626 57.6971 106.314L58.093 106.458C57.901 107.177 57.6012 107.969 57.1934 108.833C56.7856 109.696 56.2698 110.5 55.6461 111.243C55.0224 111.987 54.2787 112.611 53.4151 113.115C52.5515 113.594 51.556 113.834 50.4285 113.834C49.253 113.834 48.2215 113.594 47.3339 113.115C46.4703 112.635 45.7386 111.999 45.1389 111.208C44.5632 110.392 44.1314 109.48 43.8435 108.473C43.5556 107.441 43.4117 106.386 43.4117 105.306C43.4117 104.227 43.5796 103.123 43.9155 101.996C44.2753 100.868 44.827 99.8487 45.5707 98.9371C46.3384 98.0016 47.3219 97.2459 48.5214 96.6702C49.7208 96.0705 51.1841 95.7706 52.9113 95.7706H57.2293V101.528H56.9775Z" fill="white"/>
<path d="M71.1828 110.38C70.8469 110.716 70.4391 111.088 69.9593 111.495C69.4796 111.879 68.9638 112.239 68.4121 112.575C67.8843 112.911 67.3206 113.187 66.7208 113.403C66.1211 113.642 65.5214 113.762 64.9217 113.762C63.6742 113.762 62.6427 113.438 61.8271 112.791C61.0115 112.143 60.6036 111.088 60.6036 109.624C60.6036 108.713 60.8555 107.897 61.3593 107.177C61.8871 106.458 62.6187 105.798 63.5543 105.198C64.4899 104.599 65.6053 104.035 66.9007 103.507C68.1961 102.979 69.6235 102.44 71.1828 101.888C71.1828 101.168 71.1588 100.496 71.1108 99.8727C71.0868 99.249 70.9789 98.7093 70.787 98.2535C70.5951 97.7977 70.2952 97.4378 69.8874 97.174C69.4796 96.9101 68.9038 96.7781 68.1602 96.7781C67.4405 96.7781 66.7808 96.8981 66.1811 97.138C65.6053 97.3779 65.0536 97.7137 64.5258 98.1455C64.0221 98.5533 63.5423 99.0451 63.0865 99.6208C62.6307 100.197 62.1749 100.832 61.7191 101.528H61.4672V95.7706H76.2924L75.5008 98.8652V111.064H75.5368L78.1996 113.403H71.1828V110.38ZM71.1828 102.895C69.7674 103.471 68.6639 103.999 67.8723 104.479C67.1047 104.958 66.5289 105.426 66.1451 105.882C65.7613 106.314 65.5334 106.746 65.4614 107.177C65.3894 107.585 65.3535 108.005 65.3535 108.437C65.3535 109.3 65.6053 109.936 66.1091 110.344C66.6369 110.728 67.2846 110.92 68.0522 110.92C68.604 110.92 69.1437 110.788 69.6715 110.524C70.2232 110.26 70.727 109.888 71.1828 109.408V102.895Z" fill="white"/>
<path d="M93.2471 110.2C92.9832 110.656 92.6714 111.1 92.3115 111.531C91.9757 111.963 91.5799 112.347 91.1241 112.683C90.6683 113.019 90.1645 113.283 89.6128 113.474C89.061 113.666 88.4373 113.762 87.7416 113.762C86.5662 113.762 85.5347 113.522 84.6471 113.043C83.7835 112.563 83.0518 111.939 82.4521 111.172C81.8763 110.38 81.4445 109.48 81.1567 108.473C80.8688 107.441 80.7249 106.386 80.7249 105.306C80.7249 104.155 80.9048 103.015 81.2646 101.888C81.6484 100.736 82.2242 99.7168 82.9918 98.8292C83.7835 97.9176 84.779 97.186 85.9784 96.6342C87.1779 96.0585 88.5932 95.7706 90.2245 95.7706H93.2471V92.676L90.8002 89.9053L97.5651 87.8542V110.884L100.228 113.403L93.2471 113.726V110.2ZM93.2471 99.225C92.6954 98.6493 92.0477 98.1455 91.304 97.7137C90.5843 97.2579 89.7567 97.03 88.8211 97.03C88.0295 97.03 87.3818 97.1979 86.878 97.5338C86.3983 97.8456 86.0144 98.2415 85.7266 98.7212C85.4387 99.201 85.2468 99.7408 85.1508 100.341C85.0549 100.916 85.0069 101.48 85.0069 102.032C85.0069 103.423 85.1508 104.623 85.4387 105.63C85.7266 106.614 86.1224 107.417 86.6262 108.041C87.1299 108.641 87.7177 109.084 88.3893 109.372C89.061 109.66 89.7807 109.804 90.5483 109.804C91.1721 109.804 91.6878 109.72 92.0956 109.552C92.5274 109.384 92.9113 109.168 93.2471 108.905V99.225Z" fill="white"/>
<path d="M118.064 103.255H106.513C106.609 104.407 106.825 105.402 107.161 106.242C107.521 107.081 107.953 107.765 108.457 108.293C108.96 108.821 109.536 109.216 110.184 109.48C110.831 109.72 111.503 109.84 112.199 109.84C112.823 109.84 113.41 109.768 113.962 109.624C114.514 109.48 115.018 109.288 115.473 109.049C115.929 108.785 116.313 108.497 116.625 108.185C116.961 107.849 117.201 107.489 117.344 107.105L117.884 107.321C117.572 108.137 117.165 108.941 116.661 109.732C116.181 110.524 115.605 111.232 114.934 111.855C114.262 112.455 113.494 112.947 112.631 113.331C111.791 113.714 110.831 113.906 109.752 113.906C108.577 113.906 107.533 113.666 106.621 113.187C105.71 112.707 104.93 112.071 104.283 111.279C103.659 110.464 103.179 109.552 102.843 108.545C102.531 107.513 102.375 106.458 102.375 105.378C102.375 104.227 102.555 103.063 102.915 101.888C103.275 100.688 103.815 99.6088 104.534 98.6493C105.278 97.6897 106.19 96.9101 107.269 96.3104C108.373 95.7106 109.656 95.4108 111.119 95.4108C113.278 95.4108 114.97 96.0945 116.193 97.4618C117.416 98.8052 118.04 100.7 118.064 103.147L118.1 103.219H118.064V103.255ZM113.422 101.852C113.422 100.892 113.326 100.077 113.134 99.4049C112.967 98.7093 112.739 98.1455 112.451 97.7137C112.163 97.2819 111.827 96.9701 111.443 96.7781C111.083 96.5862 110.7 96.4903 110.292 96.4903C109.62 96.4903 109.032 96.6702 108.529 97.03C108.049 97.3899 107.653 97.8456 107.341 98.3974C107.029 98.9491 106.801 99.5369 106.657 100.161C106.513 100.784 106.442 101.372 106.442 101.924V102.176H113.422V101.852Z" fill="white"/>
<path d="M127.427 98.0376C128.122 97.2219 128.914 96.5742 129.802 96.0945C130.713 95.5907 131.745 95.3388 132.896 95.3388C134.216 95.3388 135.283 95.6267 136.099 96.2024C136.938 96.7542 137.526 97.5218 137.862 98.5053C138.174 98.0735 138.546 97.6657 138.977 97.2819C139.409 96.8981 139.877 96.5622 140.381 96.2744C140.908 95.9865 141.46 95.7586 142.036 95.5907C142.612 95.4228 143.199 95.3388 143.799 95.3388C144.711 95.3388 145.502 95.4827 146.174 95.7706C146.87 96.0585 147.433 96.4543 147.865 96.9581C148.321 97.4618 148.657 98.0735 148.873 98.7932C149.089 99.4889 149.197 100.257 149.197 101.096V110.308H149.233L151.895 113.403H142.252L144.879 110.344V102.32C144.879 101.624 144.843 101 144.771 100.448C144.699 99.8967 144.555 99.4289 144.339 99.0451C144.123 98.6373 143.799 98.3254 143.367 98.1095C142.959 97.8936 142.408 97.7857 141.712 97.7857C140.441 97.7857 139.265 98.3974 138.186 99.6208C138.258 100.077 138.294 100.568 138.294 101.096V110.308H138.33L140.992 113.403H131.349L133.976 110.344V102.32C133.976 101.624 133.94 101 133.868 100.448C133.796 99.8967 133.652 99.4289 133.436 99.0451C133.22 98.6373 132.896 98.3254 132.464 98.1095C132.056 97.8936 131.505 97.7857 130.809 97.7857C130.185 97.7857 129.598 97.9176 129.046 98.1815C128.518 98.4454 127.978 98.8652 127.427 99.4409V110.308L130.089 113.403H120.446L123.109 110.308V100.592L120.662 97.8217L127.427 95.4108V98.0376Z" fill="white"/>
<path d="M161.603 95.7706L158.977 98.0735L162.755 107.357L163.187 108.581L167.541 98.0735L164.914 95.7706H171.319L169.196 98.0016L160.812 118.044L163.402 121.139H155.666L158.833 117.9L160.956 113.043L154.443 98.6853L152.068 95.7706H161.603Z" fill="white"/>
</svg>
